# xmcd
#
# Track frame offsets:
#	150
#	12460
#	22775
#	34852
#	52460
#	70520
#	92927
#	111720
#	128032
#	143120
#	165109
#	178930
#	195295
#	220705
#	239052
#	247652
#	260497
#	270145
#	282540
#	299877
#
# Disc length: 4247 seconds
#
# Revision: 2
# Processed by: cddbd v1.5.2PL0 Copyright (c) Steve Scherf et al.
# Submitted via: EasyCDDAExtractor 2010.6.0.0
#
DISCID=2c109514
DTITLE=Esham - (1997) Bruce Wayne: Gothom 1987
DYEAR=1997
DGENRE=Wicked Shit
TTITLE0=Comerica
TTITLE1=You Still Ain't Shit To Me
TTITLE2=7 Mile Rd.
TTITLE3=Lowlafalana
TTITLE4=Change Ya Mind (w/TNT and Mastamind)
TTITLE5=You and Me
TTITLE6=Gimme Ya Love (w/Zelah Williams)
TTITLE7=Who Is Bruce Wayne
TTITLE8=1987 (w/Mastamind)
TTITLE9=You Betta Ask Somebody (w/TNT, Mastamind, Drunken Master and Zelah Willi
TTITLE9=ams)
TTITLE10=Where My B At
TTITLE11=Fuck Da Fame
TTITLE12=Seems Like Yesterday (w/Zelah Williams)
TTITLE13=?  (w/Mastamind)
TTITLE14=Detective (w/Moebadis, Mastamind and TNT)
TTITLE15=Nervous
TTITLE16=?
TTITLE17=FM 98
TTITLE18=? (w/Mastamind)
TTITLE19=Gothom City
EXTD=ID3G: 34
EXTT0=
EXTT1=
EXTT2=
EXTT3=
EXTT4=
EXTT5=
EXTT6=
EXTT7=
EXTT8=
EXTT9=
EXTT10=
EXTT11=
EXTT12=
EXTT13=
EXTT14=
EXTT15=
EXTT16=
EXTT17=
EXTT18=
EXTT19=
PLAYORDER=
